<?xml version="1.0" standalone="no"?>
<!DOCTYPE svg PUBLIC "-//W3C//DTD SVG 20010904//EN"
 "http://www.w3.org/TR/2001/REC-SVG-20010904/DTD/svg10.dtd">
<svg version="1.0" xmlns="http://www.w3.org/2000/svg"
 width="474.000000pt" height="474.000000pt" viewBox="0 0 474.000000 474.000000"
 preserveAspectRatio="xMidYMid meet">

<g transform="translate(0.000000,474.000000) scale(0.100000,-0.100000)"
fill="#000000" stroke="none">
<path d="M2105 4731 c-6 -4 -50 -14 -100 -20 -106 -14 -286 -58 -405 -100
-783 -270 -1365 -923 -1544 -1731 -14 -63 -28 -143 -32 -177 -4 -35 -11 -63
-15 -63 -5 0 -9 -122 -9 -271 0 -148 4 -268 9 -265 4 3 11 -23 14 -59 9 -98
54 -285 103 -434 249 -749 874 -1332 1641 -1532 127 -34 262 -59 311 -59 17 0
32 -4 32 -10 0 -6 93 -10 260 -10 167 0 260 4 260 10 0 6 16 10 36 10 50 0
270 45 374 76 541 164 996 501 1306 967 120 180 216 382 284 592 36 114 90
362 90 418 0 20 5 37 10 37 6 0 10 93 10 260 0 167 -4 260 -10 260 -5 0 -10
15 -10 33 0 86 -56 328 -116 499 -45 129 -154 355 -228 472 -128 201 -337 437
-516 579 -331 264 -728 440 -1120 497 -47 6 -93 16 -102 21 -22 11 -521 12
-533 0z m626 -320 c839 -151 1497 -782 1674 -1605 79 -367 58 -738 -61 -1096
-174 -525 -550 -955 -1049 -1201 -265 -130 -554 -204 -820 -210 l-90 -2 0 889
0 889 215 3 c118 1 217 6 221 10 3 4 23 124 43 267 21 143 40 270 43 283 l5
22 -267 0 -267 0 4 218 c4 236 10 266 66 326 48 51 74 56 277 56 l185 0 0 295
0 295 -202 0 c-231 0 -361 -12 -466 -40 -243 -67 -386 -225 -444 -493 -16 -75
-21 -145 -25 -374 l-6 -283 -168 0 -169 0 0 -290 0 -290 33 0 c17 -1 94 -1
170 0 l137 1 0 -842 0 -841 -27 7 c-46 11 -203 75 -287 117 -577 289 -978 811
-1111 1448 -32 153 -45 463 -26 626 73 622 405 1162 926 1507 118 77 343 187
475 231 113 37 309 81 430 96 127 15 449 5 581 -19z"/>
</g>
</svg>
