<?xml version="1.0" standalone="no"?>
<!DOCTYPE svg PUBLIC "-//W3C//DTD SVG 20010904//EN"
 "http://www.w3.org/TR/2001/REC-SVG-20010904/DTD/svg10.dtd">
<svg version="1.0" xmlns="http://www.w3.org/2000/svg"
 width="840.000000pt" height="880.000000pt" viewBox="0 0 840.000000 880.000000"
 preserveAspectRatio="xMidYMid meet">

<g transform="translate(0.000000,880.000000) scale(0.100000,-0.100000)"
fill="#000000" stroke="none">
<path d="M2225 8374 c-279 -38 -546 -123 -784 -251 -681 -365 -1137 -1036
-1221 -1798 -8 -71 -10 -657 -8 -1990 3 -1757 5 -1897 21 -1985 46 -245 108
-433 211 -645 236 -480 620 -859 1104 -1087 126 -60 356 -137 497 -168 232
-50 243 -50 2165 -50 1923 0 1905 0 2148 50 576 120 1100 472 1441 970 218
318 355 704 391 1100 8 89 10 652 7 1965 -4 2012 0 1876 -61 2130 -185 763
-754 1391 -1495 1649 -120 42 -256 78 -391 103 -89 16 -226 18 -2010 19 -1574
2 -1933 0 -2015 -12z m3965 -622 c371 -74 675 -241 935 -514 247 -260 392
-573 451 -973 10 -70 13 -3346 3 -3590 -6 -137 -15 -232 -29 -300 -141 -670
-654 -1183 -1327 -1325 -67 -14 -162 -23 -298 -29 -303 -12 -3535 -6 -3620 7
-197 31 -360 80 -520 157 -534 258 -889 762 -954 1357 -15 134 -15 3555 0
3699 29 288 121 547 277 780 283 422 725 690 1232 748 41 5 898 8 1905 7
l1830 -1 115 -23z"/>
<path d="M6550 7143 c-65 -23 -152 -113 -174 -181 -39 -115 -7 -253 76 -327
69 -63 113 -80 208 -80 99 1 155 22 219 86 62 63 85 120 86 214 0 130 -53 218
-167 275 -52 25 -72 30 -132 29 -39 0 -91 -8 -116 -16z"/>
<path d="M3957 6535 c-840 -107 -1533 -671 -1795 -1460 -336 -1010 117 -2110
1068 -2595 309 -157 620 -232 970 -232 584 -1 1111 218 1525 636 191 192 313
365 422 593 139 293 205 592 205 924 -1 584 -225 1115 -644 1531 -316 312
-738 524 -1183 593 -141 22 -434 28 -568 10z m553 -630 c328 -73 598 -225 820
-462 187 -200 321 -461 382 -747 32 -148 32 -446 0 -594 -34 -156 -68 -255
-133 -387 -213 -434 -614 -736 -1104 -832 -125 -24 -413 -24 -545 0 -539 100
-989 481 -1175 997 -55 153 -76 272 -82 461 -6 193 2 280 43 442 65 259 192
484 386 683 239 245 512 388 858 450 105 18 448 12 550 -11z"/>
</g>
</svg>
